# xmcd CD database file
#
# Track frame offsets:
#	150
#	14277
#	30804
#	42192
#	63238
#	74280
#	85474
#	105657
#	119586
#	131476
#	147442
#
# Disc length: 2717 seconds
#
# Revision: 0
# Processed by: cddbd v1.5.2PL0 Copyright (c) Steve Scherf et al.
# Submitted via: CDex 1.70beta2
#
DISCID=920a9b0b
DTITLE=Bob Wayne - Blood To Dust
DYEAR=1900
DGENRE=Country
TTITLE0=Road Bound
TTITLE1=Ghost Town
TTITLE2=27 Years
TTITLE3=Here comes the bride
TTITLE4=La Diabla
TTITLE5=My Only Friend
TTITLE6=Blood to Dust
TTITLE7=5 in the Morning
TTITLE8=Darkness
TTITLE9=Work of the Devil
TTITLE10=Cardboard Blues
EXTD=
EXTT0=
EXTT1=
EXTT2=
EXTT3=
EXTT4=
EXTT5=
EXTT6=
EXTT7=
EXTT8=
EXTT9=
EXTT10=
PLAYORDER=
